<?xml version="1.0" standalone="no"?>
<!DOCTYPE svg PUBLIC "-//W3C//DTD SVG 20010904//EN"
 "http://www.w3.org/TR/2001/REC-SVG-20010904/DTD/svg10.dtd">
<svg version="1.0" xmlns="http://www.w3.org/2000/svg"
 width="172.000000pt" height="130.000000pt" viewBox="0 0 172.000000 130.000000"
 preserveAspectRatio="xMidYMid meet">

<g transform="translate(0.000000,130.000000) scale(0.100000,-0.100000)"
fill="#bf0000" stroke="none">
<path d="M1115 1268 c-16 -13 -45 -38 -63 -55 -19 -18 -40 -33 -46 -33 -7 0
-35 -16 -62 -35 -33 -23 -60 -35 -83 -35 -21 0 -55 13 -91 35 -32 19 -62 35
-67 35 -13 0 -137 80 -141 91 -5 13 -74 11 -99 -4 -12 -6 -50 -33 -85 -58
-103 -73 -234 -136 -303 -145 -16 -2 -36 -11 -44 -19 -19 -19 -30 -103 -25
-195 2 -41 5 -109 7 -150 4 -77 38 -171 86 -239 12 -16 21 -35 21 -43 0 -8 23
-50 50 -95 57 -93 199 -233 267 -264 77 -36 125 -36 197 0 60 29 176 132 214
189 14 22 15 22 74 -43 74 -80 173 -152 235 -171 73 -22 122 -1 239 103 111
99 150 155 217 313 67 158 74 193 82 397 8 179 8 179 -16 207 -16 18 -36 28
-59 30 -38 4 -199 61 -215 77 -5 5 -15 9 -23 9 -14 0 -58 31 -126 87 -48 40
-97 44 -141 11z m-479 -70 c60 -33 125 -69 144 -79 40 -19 147 -49 179 -49 11
0 25 -9 31 -19 9 -18 13 -176 6 -261 -1 -19 -3 -50 -4 -67 -2 -30 -5 -33 -32
-33 -27 0 -30 3 -30 31 0 19 -11 45 -29 68 -22 28 -29 50 -34 99 -6 78 -26
108 -84 134 -42 19 -59 20 -252 14 -113 -4 -219 -8 -236 -9 -18 -1 -29 3 -28
10 1 6 -4 16 -12 23 -11 9 -17 7 -27 -9 -13 -21 -48 -29 -48 -11 0 6 -5 10
-11 10 -6 0 -8 -9 -4 -22 5 -18 4 -20 -4 -8 -17 25 -45 -56 -35 -100 l9 -35
75 -6 c49 -3 90 -13 118 -28 l43 -22 -3 -72 -3 -72 -159 -12 c-88 -7 -161 -11
-163 -9 -1 1 -5 47 -8 100 -3 54 -7 102 -10 106 -5 8 12 151 19 157 2 2 39 17
82 32 100 36 158 64 209 101 22 16 59 38 81 49 23 12 47 28 54 36 21 26 53 17
166 -47z m-320 -183 c59 6 65 5 53 -8 -8 -8 -18 -13 -22 -10 -4 3 -14 -1 -22
-7 -8 -7 -15 -9 -15 -4 0 5 -4 2 -10 -6 -6 -9 -5 -20 3 -29 9 -12 9 -13 -1 -7
-8 5 -20 -1 -31 -15 l-18 -23 -8 25 c-11 32 -12 69 -3 63 4 -3 8 -1 8 5 0 5
-4 13 -10 16 -5 3 -10 14 -9 23 0 12 3 10 10 -7 9 -22 12 -23 75 -16z m462 -8
c10 -9 21 -15 24 -12 3 3 11 -2 19 -12 12 -14 12 -16 0 -8 -11 6 -13 4 -6 -11
4 -10 15 -46 24 -80 10 -35 31 -78 50 -102 l33 -42 -16 -42 -16 -43 3 43 c3
42 0 46 -55 93 -67 59 -152 182 -145 210 3 10 1 17 -4 13 -14 -8 -11 -42 7
-76 16 -30 16 -31 -7 -25 -12 3 -38 -1 -57 -9 -45 -18 -46 -18 -62 11 -7 14
-15 23 -17 21 -3 -2 0 -14 7 -25 6 -12 8 -21 6 -21 -3 0 -14 17 -25 38 -22 40
-27 39 -11 -2 14 -38 1 -31 -15 8 -8 18 -23 36 -35 39 -17 4 -20 0 -20 -29 0
-19 -9 -57 -20 -86 -23 -62 -23 -61 -9 -52 8 4 9 -1 4 -17 -5 -13 -15 -55 -24
-94 -9 -38 -19 -68 -22 -65 -3 3 -14 -2 -25 -10 -18 -14 -18 -14 -1 6 11 14
17 37 17 70 0 27 4 63 9 80 6 21 4 41 -5 63 -21 50 -18 114 7 145 19 25 52 35
62 19 2 -5 2 -3 1 4 -2 9 22 13 84 16 158 7 219 3 240 -16z m-569 -27 c4 0 8
-6 9 -12 0 -7 2 -22 4 -32 2 -10 -3 -21 -11 -24 -8 -3 -11 0 -7 6 4 7 -6 12
-26 15 -28 4 -27 4 5 3 33 -1 36 0 21 11 -10 7 -24 13 -31 13 -7 0 -10 6 -6
16 3 8 12 13 20 10 8 -3 18 -6 22 -6z m408 -170 c6 0 14 7 17 16 5 14 7 14 22
-1 24 -23 11 -29 -56 -27 -43 1 -63 -2 -72 -14 -7 -8 -21 -24 -30 -35 -10 -10
-17 -29 -15 -41 2 -18 -4 -24 -25 -26 -24 -3 -28 0 -28 20 0 13 6 42 13 66 10
34 15 40 26 30 10 -11 16 -9 28 9 13 19 18 20 35 10 17 -10 22 -9 31 5 10 15
13 15 27 3 9 -8 21 -15 27 -15z m93 2 c0 -13 -12 -22 -22 -16 -10 6 -1 24 13
24 5 0 9 -4 9 -8z m-60 -43 c0 -6 -4 -7 -10 -4 -5 3 -10 11 -10 16 0 6 5 7 10
4 6 -3 10 -11 10 -16z m-90 1 c0 -5 -4 -10 -10 -10 -5 0 -10 5 -10 10 0 6 5
10 10 10 6 0 10 -4 10 -10z m39 -24 c-3 -3 -11 5 -18 17 -13 21 -12 21 5 5 10
-10 16 -20 13 -22z m96 24 c-3 -5 -1 -11 4 -11 6 -1 15 -2 20 -3 5 0 13 -5 18
-10 5 -5 2 -6 -6 -1 -10 5 -12 3 -7 -11 4 -13 -1 -23 -14 -32 -23 -14 -24 -12
-34 46 -4 24 -2 32 10 32 8 0 12 -4 9 -10z m100 -52 c6 -24 4 -28 -14 -28 -23
0 -47 35 -31 45 6 4 8 16 4 28 l-6 22 20 -20 c12 -11 24 -32 27 -47z m75 0 c0
-15 -5 -28 -11 -28 -7 0 -9 11 -6 28 3 17 -1 34 -11 47 -17 20 -17 20 6 1 13
-12 22 -30 22 -48z m-234 -3 c-6 -14 -19 -25 -28 -25 -22 0 -24 26 -3 34 8 3
15 13 15 22 0 13 3 14 14 5 11 -9 11 -17 2 -36z m-68 8 c2 -25 62 -95 62 -72
0 6 5 7 11 3 6 -3 7 -10 2 -15 -13 -13 -74 13 -69 28 3 7 1 13 -4 13 -6 0 -10
-8 -10 -17 0 -15 -3 -14 -15 4 -20 28 -16 83 5 83 10 0 16 -10 18 -27z m97
-13 c-3 -5 0 -18 7 -29 11 -18 5 -42 -7 -29 -12 12 -17 68 -6 68 7 0 10 -4 6
-10z m75 -30 c0 -31 -16 -41 -26 -15 -5 13 11 45 22 45 2 0 4 -13 4 -30z
m-218 -17 c21 -18 23 -33 6 -33 -6 0 -9 3 -5 6 3 4 -4 15 -16 25 -12 10 -18
18 -13 19 5 0 18 -7 28 -17z m297 -179 c23 -60 25 -74 13 -74 -4 0 -16 23 -27
52 -17 48 -19 50 -29 29 -7 -17 -6 -25 5 -32 11 -7 11 -9 -3 -9 -10 0 -20 -10
-24 -25 -3 -14 -9 -25 -13 -25 -4 0 4 33 18 74 14 41 29 72 33 70 4 -2 16 -29
27 -60z m-421 39 c-8 -10 -18 -26 -21 -36 -8 -22 9 -68 30 -84 16 -12 16 -13
0 -13 -42 0 -65 94 -31 131 22 24 42 25 22 2z m89 -5 c14 -13 23 -33 23 -53 0
-32 -24 -75 -41 -75 -6 0 -3 10 5 22 29 41 15 101 -27 118 -20 8 -20 9 -3 9
11 1 30 -9 43 -21z m84 -20 c12 -24 28 -51 36 -60 8 -9 12 -22 8 -28 -5 -8
-18 6 -36 36 l-28 48 -7 -54 c-4 -30 -9 -49 -12 -42 -5 15 7 142 14 142 2 0
13 -19 25 -42z m102 20 c14 -59 19 -118 9 -118 -6 0 -13 23 -17 50 -4 32 -11
48 -18 43 -7 -4 -8 0 -4 11 4 10 7 22 7 27 0 19 18 8 23 -13z m-429 -34 c8
-63 8 -94 -2 -94 -5 0 -10 28 -11 62 -1 34 -4 65 -7 70 -3 4 -1 8 4 8 5 0 12
-21 16 -46z m56 31 c10 -12 10 -21 1 -41 -9 -22 -8 -30 9 -51 28 -36 17 -42
-14 -7 -27 31 -32 44 -16 44 14 0 13 43 -2 58 -8 8 -8 12 -1 12 6 0 16 -7 23
-15z m331 -62 c-12 -20 -14 -14 -5 12 4 9 9 14 11 11 3 -2 0 -13 -6 -23z m39
-192 c0 -5 -9 -7 -20 -4 -11 3 -20 7 -20 9 0 2 9 4 20 4 11 0 20 -4 20 -9z
m-142 -13 c16 -16 15 -30 -3 -54 -14 -17 -14 -17 -3 10 11 25 10 30 -7 42 -10
8 -14 14 -9 14 6 0 15 -5 22 -12z m72 -12 c0 -14 -3 -27 -7 -29 -5 -3 -8 8 -8
24 0 16 3 29 8 29 4 0 7 -11 7 -24z m-150 -21 c0 -19 -2 -35 -4 -35 -2 0 -6
16 -8 35 -2 19 0 35 4 35 4 0 8 -16 8 -35z m37 13 c-3 -8 -6 -5 -6 6 -1 11 2
17 5 13 3 -3 4 -12 1 -19z m160 -40 c-3 -8 -6 -5 -6 6 -1 11 2 17 5 13 3 -3 4
-12 1 -19z"/>
</g>
</svg>
